<svg width="93" height="19" viewBox="0 0 93 19" fill="none" xmlns="http://www.w3.org/2000/svg">
<path d="M3.71875 3.625L7 12.3438L10.2734 3.625H12.8281V15H10.8594V11.25L11.0547 6.23438L7.69531 15H6.28125L2.92969 6.24219L3.125 11.25V15H1.15625V3.625H3.71875ZM20.0391 15C19.9557 14.8385 19.8828 14.5755 19.8203 14.2109C19.2161 14.8411 18.4766 15.1562 17.6016 15.1562C16.7526 15.1562 16.0599 14.9141 15.5234 14.4297C14.987 13.9453 14.7188 13.3464 14.7188 12.6328C14.7188 11.7318 15.0521 11.0417 15.7188 10.5625C16.3906 10.0781 17.349 9.83594 18.5938 9.83594H19.7578V9.28125C19.7578 8.84375 19.6354 8.49479 19.3906 8.23438C19.1458 7.96875 18.7734 7.83594 18.2734 7.83594C17.8411 7.83594 17.487 7.94531 17.2109 8.16406C16.9349 8.3776 16.7969 8.65104 16.7969 8.98438H14.8984C14.8984 8.52083 15.0521 8.08854 15.3594 7.6875C15.6667 7.28125 16.0833 6.96354 16.6094 6.73438C17.1406 6.50521 17.7318 6.39062 18.3828 6.39062C19.3724 6.39062 20.1615 6.64062 20.75 7.14062C21.3385 7.63542 21.6406 8.33333 21.6562 9.23438V13.0469C21.6562 13.8073 21.763 14.4141 21.9766 14.8672V15H20.0391ZM17.9531 13.6328C18.3281 13.6328 18.6797 13.5417 19.0078 13.3594C19.3411 13.1771 19.5911 12.9323 19.7578 12.625V11.0312H18.7344C18.0312 11.0312 17.5026 11.1536 17.1484 11.3984C16.7943 11.6432 16.6172 11.9896 16.6172 12.4375C16.6172 12.8021 16.737 13.0938 16.9766 13.3125C17.2214 13.526 17.5469 13.6328 17.9531 13.6328ZM26.3906 11.375L25.5469 12.2422V15H23.6484V3H25.5469V9.92188L26.1406 9.17969L28.4766 6.54688H30.7578L27.6172 10.0703L31.0938 15H28.8984L26.3906 11.375ZM35.5703 15.1562C34.3672 15.1562 33.3906 14.7786 32.6406 14.0234C31.8958 13.263 31.5234 12.2526 31.5234 10.9922V10.7578C31.5234 9.91406 31.6849 9.16146 32.0078 8.5C32.3359 7.83333 32.7943 7.3151 33.3828 6.94531C33.9714 6.57552 34.6276 6.39062 35.3516 6.39062C36.5026 6.39062 37.3906 6.75781 38.0156 7.49219C38.6458 8.22656 38.9609 9.26562 38.9609 10.6094V11.375H33.4375C33.4948 12.0729 33.7266 12.625 34.1328 13.0312C34.5443 13.4375 35.0599 13.6406 35.6797 13.6406C36.5495 13.6406 37.2578 13.2891 37.8047 12.5859L38.8281 13.5625C38.4896 14.0677 38.0365 14.4609 37.4688 14.7422C36.9062 15.0182 36.2734 15.1562 35.5703 15.1562ZM35.3438 7.91406C34.8229 7.91406 34.401 8.09635 34.0781 8.46094C33.7604 8.82552 33.5573 9.33333 33.4688 9.98438H37.0859V9.84375C37.0443 9.20833 36.875 8.72917 36.5781 8.40625C36.2812 8.07812 35.8698 7.91406 35.3438 7.91406Z" fill="#001F36"/>
<path d="M47.875 12.2031C47.875 11.5729 47.6536 11.0755 47.2109 10.7109C46.7682 10.3411 45.9583 9.99219 44.7812 9.66406C43.6042 9.33073 42.7448 8.96875 42.2031 8.57812C41.4323 8.02604 41.0469 7.30208 41.0469 6.40625C41.0469 5.53646 41.4036 4.83073 42.1172 4.28906C42.8359 3.74219 43.7526 3.46875 44.8672 3.46875C45.6224 3.46875 46.2969 3.61458 46.8906 3.90625C47.4896 4.19792 47.9531 4.60417 48.2812 5.125C48.6094 5.64583 48.7734 6.22656 48.7734 6.86719H47.8047C47.8047 6.09115 47.5391 5.46875 47.0078 5C46.4766 4.52604 45.763 4.28906 44.8672 4.28906C43.9974 4.28906 43.3047 4.48438 42.7891 4.875C42.2734 5.26042 42.0156 5.76562 42.0156 6.39062C42.0156 6.96875 42.2474 7.4401 42.7109 7.80469C43.1745 8.16927 43.9167 8.49219 44.9375 8.77344C45.9583 9.04948 46.7318 9.33854 47.2578 9.64062C47.7839 9.9375 48.1797 10.2943 48.4453 10.7109C48.7109 11.1276 48.8438 11.6198 48.8438 12.1875C48.8438 13.0833 48.4844 13.8021 47.7656 14.3438C47.0521 14.8854 46.1094 15.1562 44.9375 15.1562C44.1354 15.1562 43.3984 15.013 42.7266 14.7266C42.0599 14.4401 41.5521 14.0391 41.2031 13.5234C40.8594 13.0078 40.6875 12.4167 40.6875 11.75H41.6484C41.6484 12.5521 41.9479 13.1849 42.5469 13.6484C43.1458 14.112 43.9427 14.3438 44.9375 14.3438C45.8229 14.3438 46.5339 14.1484 47.0703 13.7578C47.6068 13.3672 47.875 12.849 47.875 12.2031ZM53.3828 13.6562L55.8516 6.54688H56.8594L53.25 16.4375L53.0625 16.875C52.599 17.901 51.8828 18.4141 50.9141 18.4141C50.6901 18.4141 50.4505 18.3776 50.1953 18.3047L50.1875 17.5312L50.6719 17.5781C51.1302 17.5781 51.5 17.4635 51.7812 17.2344C52.0677 17.0104 52.3099 16.6224 52.5078 16.0703L52.9219 14.9297L49.7344 6.54688H50.7578L53.3828 13.6562ZM63.375 12.8516C63.375 12.388 63.1875 12.0156 62.8125 11.7344C62.4427 11.4531 61.8828 11.2344 61.1328 11.0781C60.3828 10.9167 59.7995 10.7344 59.3828 10.5312C58.9714 10.3229 58.6641 10.0703 58.4609 9.77344C58.263 9.47656 58.1641 9.11719 58.1641 8.69531C58.1641 8.02865 58.4427 7.47917 59 7.04688C59.5573 6.60938 60.2708 6.39062 61.1406 6.39062C62.0833 6.39062 62.8385 6.625 63.4062 7.09375C63.9792 7.55729 64.2656 8.16406 64.2656 8.91406H63.3281C63.3281 8.41927 63.1198 8.00781 62.7031 7.67969C62.2917 7.35156 61.7708 7.1875 61.1406 7.1875C60.526 7.1875 60.0312 7.32552 59.6562 7.60156C59.2865 7.8724 59.1016 8.22656 59.1016 8.66406C59.1016 9.08594 59.2552 9.41406 59.5625 9.64844C59.875 9.8776 60.4401 10.0885 61.2578 10.2812C62.0807 10.474 62.6953 10.6797 63.1016 10.8984C63.513 11.1172 63.8177 11.3802 64.0156 11.6875C64.2135 11.9948 64.3125 12.3672 64.3125 12.8047C64.3125 13.5182 64.0234 14.0885 63.4453 14.5156C62.8724 14.9427 62.1224 15.1562 61.1953 15.1562C60.2109 15.1562 59.4115 14.9193 58.7969 14.4453C58.1875 13.9661 57.8828 13.362 57.8828 12.6328H58.8203C58.8568 13.1797 59.0859 13.6068 59.5078 13.9141C59.9349 14.2161 60.4974 14.3672 61.1953 14.3672C61.8464 14.3672 62.3724 14.224 62.7734 13.9375C63.1745 13.651 63.375 13.2891 63.375 12.8516ZM67.875 4.38281V6.54688H69.625V7.3125H67.875V12.9453C67.875 13.4141 67.9583 13.763 68.125 13.9922C68.2969 14.2214 68.5807 14.3359 68.9766 14.3359C69.1328 14.3359 69.3854 14.3099 69.7344 14.2578L69.7734 15.0234C69.5286 15.112 69.1953 15.1562 68.7734 15.1562C68.1328 15.1562 67.6667 14.9714 67.375 14.6016C67.0833 14.2266 66.9375 13.6771 66.9375 12.9531V7.3125H65.3828V6.54688H66.9375V4.38281H67.875ZM74.8359 15.1562C74.1172 15.1562 73.4661 14.9792 72.8828 14.625C72.3047 14.2708 71.8542 13.7786 71.5312 13.1484C71.2083 12.513 71.0469 11.8021 71.0469 11.0156V10.6797C71.0469 9.86719 71.2031 9.13542 71.5156 8.48438C71.8333 7.83333 72.2734 7.32292 72.8359 6.95312C73.3984 6.57812 74.0078 6.39062 74.6641 6.39062C75.6901 6.39062 76.5026 6.74219 77.1016 7.44531C77.7057 8.14323 78.0078 9.09896 78.0078 10.3125V10.8359H71.9766V11.0156C71.9766 11.974 72.25 12.7734 72.7969 13.4141C73.349 14.0495 74.0417 14.3672 74.875 14.3672C75.375 14.3672 75.8151 14.276 76.1953 14.0938C76.5807 13.9115 76.9297 13.6198 77.2422 13.2188L77.8281 13.6641C77.1406 14.6589 76.1432 15.1562 74.8359 15.1562ZM74.6641 7.1875C73.9609 7.1875 73.3672 7.44531 72.8828 7.96094C72.4036 8.47656 72.112 9.16927 72.0078 10.0391H77.0781V9.9375C77.0521 9.125 76.8203 8.46354 76.3828 7.95312C75.9453 7.44271 75.3724 7.1875 74.6641 7.1875ZM80.6797 6.54688L80.7109 7.92188C81.0234 7.41146 81.4141 7.02865 81.8828 6.77344C82.3516 6.51823 82.8724 6.39062 83.4453 6.39062C84.7786 6.39062 85.625 6.9375 85.9844 8.03125C86.2865 7.50521 86.6901 7.10156 87.1953 6.82031C87.7005 6.53385 88.2578 6.39062 88.8672 6.39062C90.6797 6.39062 91.6042 7.38021 91.6406 9.35938V15H90.7031V9.42969C90.6979 8.67448 90.5339 8.11458 90.2109 7.75C89.8932 7.38542 89.3724 7.20312 88.6484 7.20312C87.9766 7.21354 87.4089 7.43229 86.9453 7.85938C86.4818 8.28125 86.224 8.79688 86.1719 9.40625V15H85.2344V9.35938C85.2292 8.63542 85.0573 8.09635 84.7188 7.74219C84.3854 7.38281 83.8698 7.20312 83.1719 7.20312C82.5833 7.20312 82.0781 7.3724 81.6562 7.71094C81.2344 8.04427 80.9219 8.54167 80.7188 9.20312V15H79.7812V6.54688H80.6797Z" fill="#0094FF"/>
</svg>
